name Walk1.mot
datacolumns 19
datarows 10
range 1.33500000 1.34400000
endheader

                time	   L_ground_force_vx	   L_ground_force_vy	   L_ground_force_vz	   L_ground_force_px	   L_ground_force_py	   L_ground_force_pz	   R_ground_force_vx	   R_ground_force_vy	   R_ground_force_vz	   R_ground_force_px	   R_ground_force_py	   R_ground_force_pz	   L_ground_torque_x	   L_ground_torque_y	   L_ground_torque_z	   R_ground_torque_x	   R_ground_torque_y	   R_ground_torque_z	
          1.33500000	         -0.55312766	         68.52503604	         -5.26563783	         -0.19831359	          0.00000000	         -0.00779083	         -0.00000000	          0.00000000	          0.00000000	          0.00000000	          0.00000000	          0.00000000	          0.00000000	         -0.02984070	          0.00000000	          0.00000000	          0.00000000	          0.00000000	
          1.33600000	         -0.95705349	         73.70352346	         -5.53450681	         -0.20974220	          0.00000000	         -0.00827645	         -0.00000000	          0.00000000	          0.00000000	          0.00000000	          0.00000000	          0.00000000	          0.00000000	         -0.02612323	          0.00000000	          0.00000000	          0.00000000	          0.00000000	
          1.33700000	         -1.39456160	         79.05883315	         -5.80550344	         -0.22136660	          0.00000000	         -0.00877301	         -0.00000000	          0.00000000	          0.00000000	          0.00000000	          0.00000000	          0.00000000	          0.00000000	         -0.02195244	          0.00000000	          0.00000000	          0.00000000	          0.00000000	
          1.33800000	         -1.86696576	         84.58527937	         -6.07770623	         -0.23315697	          0.00000000	         -0.00927948	         -0.00000000	          0.00000000	          0.00000000	          0.00000000	          0.00000000	          0.00000000	          0.00000000	         -0.01730341	          0.00000000	          0.00000000	          0.00000000	          0.00000000	
          1.33900000	         -2.37555769	         90.27594128	         -6.35010311	         -0.24508004	          0.00000000	         -0.00979470	         -0.00000000	          0.00000000	          0.00000000	          0.00000000	          0.00000000	          0.00000000	          0.00000000	         -0.01215091	          0.00000000	          0.00000000	          0.00000000	          0.00000000	
          1.34000000	         -2.92159971	         96.12257671	         -6.62158712	         -0.25709891	          0.00000000	         -0.01031734	         -0.00000000	          0.00000000	          0.00000000	          0.00000000	          0.00000000	          0.00000000	          0.00000000	         -0.00646943	          0.00000000	          0.00000000	          0.00000000	          0.00000000	
          1.34100000	         -3.50631677	        102.11553341	         -6.89095224	         -0.26917284	          0.00000000	         -0.01084593	         -0.00000000	          0.00000000	         -0.00000000	          0.00000000	          0.00000000	          0.00000000	          0.00000000	         -0.00023328	          0.00000000	          0.00000000	          0.00000000	          0.00000000	
          1.34200000	         -4.13088724	        108.24367343	         -7.15688989	         -0.28125761	          0.00000000	         -0.01137888	         -0.00000000	          0.00000000	         -0.00000000	          0.00000000	          0.00000000	          0.00000000	          0.00000000	          0.00658327	          0.00000000	          0.00000000	          0.00000000	          0.00000000	
          1.34300000	         -4.79643067	        114.49435532	         -7.41798843	         -0.29330751	          0.00000000	         -0.01191453	         -0.00000000	          0.00000000	         -0.00000000	          0.00000000	          0.00000000	          0.00000000	          0.00000000	          0.01400570	          0.00000000	          0.00000000	          0.00000000	          0.00000000	
          1.34400000	         -5.50399150	        120.85350641	         -7.67273706	         -0.30527833	          0.00000000	         -0.01245132	         -0.00000000	          0.00000000	         -0.00000000	          0.00000000	          0.00000000	          0.00000000	          0.00000000	          0.02205868	          0.00000000	          0.00000000	          0.00000000	          0.00000000	
